<svg width="32" height="32" viewBox="0 0 32 32" fill="none" xmlns="http://www.w3.org/2000/svg">
<rect width="32" height="31.3356" rx="15.6678" fill="#E7FFF4"/>
<path d="M23.8184 19.6639C23.3559 18.8671 22.6682 16.6125 22.6682 13.6678C22.6682 11.8994 21.9657 10.2034 20.7153 8.95296C19.4648 7.7025 17.7688 7 16.0004 7C14.232 7 12.536 7.7025 11.2856 8.95296C10.0351 10.2034 9.3326 11.8994 9.3326 13.6678C9.3326 16.6133 8.64415 18.8671 8.18157 19.6639C8.06344 19.8664 8.00081 20.0966 8.00001 20.3311C7.9992 20.5656 8.06025 20.7961 8.17698 20.9995C8.29371 21.2029 8.46201 21.3719 8.6649 21.4895C8.86779 21.607 9.0981 21.669 9.3326 21.6692H12.734C12.8879 22.422 13.297 23.0985 13.8922 23.5843C14.4874 24.0702 15.2321 24.3356 16.0004 24.3356C16.7687 24.3356 17.5135 24.0702 18.1087 23.5843C18.7039 23.0985 19.113 22.422 19.2668 21.6692H22.6682C22.9027 21.6689 23.1329 21.6068 23.3356 21.4891C23.5384 21.3715 23.7066 21.2025 23.8232 20.9991C23.9399 20.7958 24.0008 20.5653 24 20.3309C23.9991 20.0964 23.9365 19.8664 23.8184 19.6639ZM16.0004 23.0028C15.5869 23.0026 15.1835 22.8743 14.8459 22.6355C14.5083 22.3967 14.2529 22.0591 14.1151 21.6692H17.8857C17.7479 22.0591 17.4926 22.3967 17.155 22.6355C16.8173 22.8743 16.414 23.0026 16.0004 23.0028ZM9.3326 20.3356C9.97438 19.2321 10.6662 16.675 10.6662 13.6678C10.6662 12.2531 11.2282 10.8963 12.2285 9.89593C13.2289 8.89556 14.5857 8.33356 16.0004 8.33356C17.4151 8.33356 18.7719 8.89556 19.7723 9.89593C20.7727 10.8963 21.3347 12.2531 21.3347 13.6678C21.3347 16.6725 22.0248 19.2296 22.6682 20.3356H9.3326Z" fill="#00A85A"/>
</svg>
