<svg width="366" height="32" viewBox="0 0 366 32" fill="none" xmlns="http://www.w3.org/2000/svg">
<g clip-path="url(#clip0_818_1482)">
<circle cx="16" cy="16" r="16" fill="#F75151" stroke="white"/>
<circle cx="40" cy="16" r="16" fill="#F75151" stroke="white"/>
<circle cx="64" cy="16" r="16" fill="#F75151" stroke="white"/>
<path d="M92.812 13.314C92.868 12.446 93.1993 11.7693 93.806 11.284C94.422 10.7987 95.206 10.556 96.158 10.556C96.8113 10.556 97.376 10.6727 97.852 10.906C98.328 11.1393 98.6873 11.4567 98.93 11.858C99.1727 12.2593 99.294 12.712 99.294 13.216C99.294 13.7947 99.14 14.2893 98.832 14.7C98.524 15.1107 98.1553 15.386 97.726 15.526V15.582C98.2767 15.75 98.706 16.058 99.014 16.506C99.322 16.9447 99.476 17.5093 99.476 18.2C99.476 18.7507 99.35 19.2407 99.098 19.67C98.846 20.0993 98.4727 20.44 97.978 20.692C97.4833 20.9347 96.8907 21.056 96.2 21.056C95.192 21.056 94.3613 20.7993 93.708 20.286C93.064 19.7633 92.7187 19.0167 92.672 18.046H94.212C94.2493 18.5407 94.4407 18.9467 94.786 19.264C95.1313 19.572 95.598 19.726 96.186 19.726C96.7553 19.726 97.194 19.572 97.502 19.264C97.81 18.9467 97.964 18.5407 97.964 18.046C97.964 17.3927 97.754 16.9307 97.334 16.66C96.9233 16.38 96.2887 16.24 95.43 16.24H95.066V14.924H95.444C96.2 14.9147 96.774 14.7887 97.166 14.546C97.5673 14.3033 97.768 13.9207 97.768 13.398C97.768 12.95 97.6233 12.5953 97.334 12.334C97.0447 12.0633 96.634 11.928 96.102 11.928C95.5793 11.928 95.1733 12.0633 94.884 12.334C94.5947 12.5953 94.422 12.922 94.366 13.314H92.812ZM104.415 17.15L107.971 21H105.815L102.959 17.682V21H101.363V10.64H102.959V16.66L105.759 13.286H107.971L104.415 17.15ZM116.632 16.618H113.804V19.516H112.32V16.618H109.492V15.274H112.32V12.376H113.804V15.274H116.632V16.618ZM124.341 14.42C124.612 14.0653 124.981 13.7667 125.447 13.524C125.914 13.2813 126.441 13.16 127.029 13.16C127.701 13.16 128.313 13.328 128.863 13.664C129.423 13.9907 129.862 14.4527 130.179 15.05C130.497 15.6473 130.655 16.3333 130.655 17.108C130.655 17.8827 130.497 18.578 130.179 19.194C129.862 19.8007 129.423 20.2767 128.863 20.622C128.313 20.958 127.701 21.126 127.029 21.126C126.441 21.126 125.919 21.0093 125.461 20.776C125.004 20.5333 124.631 20.2347 124.341 19.88V24.668H122.745V13.286H124.341V14.42ZM129.031 17.108C129.031 16.576 128.919 16.1187 128.695 15.736C128.481 15.344 128.191 15.05 127.827 14.854C127.473 14.6487 127.09 14.546 126.679 14.546C126.278 14.546 125.895 14.6487 125.531 14.854C125.177 15.0593 124.887 15.358 124.663 15.75C124.449 16.142 124.341 16.604 124.341 17.136C124.341 17.668 124.449 18.1347 124.663 18.536C124.887 18.928 125.177 19.2267 125.531 19.432C125.895 19.6373 126.278 19.74 126.679 19.74C127.09 19.74 127.473 19.6373 127.827 19.432C128.191 19.2173 128.481 18.9093 128.695 18.508C128.919 18.1067 129.031 17.64 129.031 17.108ZM139.304 16.954C139.304 17.2433 139.285 17.5047 139.248 17.738H133.354C133.4 18.354 133.629 18.8487 134.04 19.222C134.45 19.5953 134.954 19.782 135.552 19.782C136.41 19.782 137.017 19.4227 137.372 18.704H139.094C138.86 19.4133 138.436 19.9967 137.82 20.454C137.213 20.902 136.457 21.126 135.552 21.126C134.814 21.126 134.152 20.9627 133.564 20.636C132.985 20.3 132.528 19.8333 132.192 19.236C131.865 18.6293 131.702 17.9293 131.702 17.136C131.702 16.3427 131.86 15.6473 132.178 15.05C132.504 14.4433 132.957 13.9767 133.536 13.65C134.124 13.3233 134.796 13.16 135.552 13.16C136.28 13.16 136.928 13.3187 137.498 13.636C138.067 13.9533 138.51 14.4013 138.828 14.98C139.145 15.5493 139.304 16.2073 139.304 16.954ZM137.638 16.45C137.628 15.862 137.418 15.3907 137.008 15.036C136.597 14.6813 136.088 14.504 135.482 14.504C134.931 14.504 134.46 14.6813 134.068 15.036C133.676 15.3813 133.442 15.8527 133.368 16.45H137.638ZM144.22 21.126C143.492 21.126 142.834 20.9627 142.246 20.636C141.658 20.3 141.196 19.8333 140.86 19.236C140.524 18.6293 140.356 17.9293 140.356 17.136C140.356 16.352 140.529 15.6567 140.874 15.05C141.22 14.4433 141.691 13.9767 142.288 13.65C142.886 13.3233 143.553 13.16 144.29 13.16C145.028 13.16 145.695 13.3233 146.292 13.65C146.89 13.9767 147.361 14.4433 147.706 15.05C148.052 15.6567 148.224 16.352 148.224 17.136C148.224 17.92 148.047 18.6153 147.692 19.222C147.338 19.8287 146.852 20.3 146.236 20.636C145.63 20.9627 144.958 21.126 144.22 21.126ZM144.22 19.74C144.631 19.74 145.014 19.642 145.368 19.446C145.732 19.25 146.026 18.956 146.25 18.564C146.474 18.172 146.586 17.696 146.586 17.136C146.586 16.576 146.479 16.1047 146.264 15.722C146.05 15.33 145.765 15.036 145.41 14.84C145.056 14.644 144.673 14.546 144.262 14.546C143.852 14.546 143.469 14.644 143.114 14.84C142.769 15.036 142.494 15.33 142.288 15.722C142.083 16.1047 141.98 16.576 141.98 17.136C141.98 17.9667 142.19 18.6107 142.61 19.068C143.04 19.516 143.576 19.74 144.22 19.74ZM151.398 14.42C151.669 14.0653 152.037 13.7667 152.504 13.524C152.971 13.2813 153.498 13.16 154.086 13.16C154.758 13.16 155.369 13.328 155.92 13.664C156.48 13.9907 156.919 14.4527 157.236 15.05C157.553 15.6473 157.712 16.3333 157.712 17.108C157.712 17.8827 157.553 18.578 157.236 19.194C156.919 19.8007 156.48 20.2767 155.92 20.622C155.369 20.958 154.758 21.126 154.086 21.126C153.498 21.126 152.975 21.0093 152.518 20.776C152.061 20.5333 151.687 20.2347 151.398 19.88V24.668H149.802V13.286H151.398V14.42ZM156.088 17.108C156.088 16.576 155.976 16.1187 155.752 15.736C155.537 15.344 155.248 15.05 154.884 14.854C154.529 14.6487 154.147 14.546 153.736 14.546C153.335 14.546 152.952 14.6487 152.588 14.854C152.233 15.0593 151.944 15.358 151.72 15.75C151.505 16.142 151.398 16.604 151.398 17.136C151.398 17.668 151.505 18.1347 151.72 18.536C151.944 18.928 152.233 19.2267 152.588 19.432C152.952 19.6373 153.335 19.74 153.736 19.74C154.147 19.74 154.529 19.6373 154.884 19.432C155.248 19.2173 155.537 18.9093 155.752 18.508C155.976 18.1067 156.088 17.64 156.088 17.108ZM160.886 10.64V21H159.29V10.64H160.886ZM170.052 16.954C170.052 17.2433 170.033 17.5047 169.996 17.738H164.102C164.148 18.354 164.377 18.8487 164.788 19.222C165.198 19.5953 165.702 19.782 166.3 19.782C167.158 19.782 167.765 19.4227 168.12 18.704H169.842C169.608 19.4133 169.184 19.9967 168.568 20.454C167.961 20.902 167.205 21.126 166.3 21.126C165.562 21.126 164.9 20.9627 164.312 20.636C163.733 20.3 163.276 19.8333 162.94 19.236C162.613 18.6293 162.45 17.9293 162.45 17.136C162.45 16.3427 162.608 15.6473 162.926 15.05C163.252 14.4433 163.705 13.9767 164.284 13.65C164.872 13.3233 165.544 13.16 166.3 13.16C167.028 13.16 167.676 13.3187 168.246 13.636C168.815 13.9533 169.258 14.4013 169.576 14.98C169.893 15.5493 170.052 16.2073 170.052 16.954ZM168.386 16.45C168.376 15.862 168.166 15.3907 167.756 15.036C167.345 14.6813 166.836 14.504 166.23 14.504C165.679 14.504 165.208 14.6813 164.816 15.036C164.424 15.3813 164.19 15.8527 164.116 16.45H168.386ZM176.071 12.264C175.782 12.264 175.539 12.166 175.343 11.97C175.147 11.774 175.049 11.5313 175.049 11.242C175.049 10.9527 175.147 10.71 175.343 10.514C175.539 10.318 175.782 10.22 176.071 10.22C176.351 10.22 176.589 10.318 176.785 10.514C176.981 10.71 177.079 10.9527 177.079 11.242C177.079 11.5313 176.981 11.774 176.785 11.97C176.589 12.166 176.351 12.264 176.071 12.264ZM176.855 22.512C176.855 23.268 176.664 23.814 176.281 24.15C175.908 24.4953 175.362 24.668 174.643 24.668H173.817V23.324H174.363C174.69 23.324 174.918 23.2587 175.049 23.128C175.189 23.0067 175.259 22.8013 175.259 22.512V13.286H176.855V22.512ZM182.296 21.126C181.568 21.126 180.91 20.9627 180.322 20.636C179.734 20.3 179.272 19.8333 178.936 19.236C178.6 18.6293 178.432 17.9293 178.432 17.136C178.432 16.352 178.605 15.6567 178.95 15.05C179.296 14.4433 179.767 13.9767 180.364 13.65C180.962 13.3233 181.629 13.16 182.366 13.16C183.104 13.16 183.771 13.3233 184.368 13.65C184.966 13.9767 185.437 14.4433 185.782 15.05C186.128 15.6567 186.3 16.352 186.3 17.136C186.3 17.92 186.123 18.6153 185.768 19.222C185.414 19.8287 184.928 20.3 184.312 20.636C183.706 20.9627 183.034 21.126 182.296 21.126ZM182.296 19.74C182.707 19.74 183.09 19.642 183.444 19.446C183.808 19.25 184.102 18.956 184.326 18.564C184.55 18.172 184.662 17.696 184.662 17.136C184.662 16.576 184.555 16.1047 184.34 15.722C184.126 15.33 183.841 15.036 183.486 14.84C183.132 14.644 182.749 14.546 182.338 14.546C181.928 14.546 181.545 14.644 181.19 14.84C180.845 15.036 180.57 15.33 180.364 15.722C180.159 16.1047 180.056 16.576 180.056 17.136C180.056 17.9667 180.266 18.6107 180.686 19.068C181.116 19.516 181.652 19.74 182.296 19.74ZM188.69 12.264C188.401 12.264 188.158 12.166 187.962 11.97C187.766 11.774 187.668 11.5313 187.668 11.242C187.668 10.9527 187.766 10.71 187.962 10.514C188.158 10.318 188.401 10.22 188.69 10.22C188.97 10.22 189.208 10.318 189.404 10.514C189.6 10.71 189.698 10.9527 189.698 11.242C189.698 11.5313 189.6 11.774 189.404 11.97C189.208 12.166 188.97 12.264 188.69 12.264ZM189.474 13.286V21H187.878V13.286H189.474ZM195.462 13.16C196.068 13.16 196.61 13.286 197.086 13.538C197.571 13.79 197.949 14.1633 198.22 14.658C198.49 15.1527 198.626 15.75 198.626 16.45V21H197.044V16.688C197.044 15.9973 196.871 15.47 196.526 15.106C196.18 14.7327 195.709 14.546 195.112 14.546C194.514 14.546 194.038 14.7327 193.684 15.106C193.338 15.47 193.166 15.9973 193.166 16.688V21H191.57V13.286H193.166V14.168C193.427 13.8507 193.758 13.6033 194.16 13.426C194.57 13.2487 195.004 13.16 195.462 13.16ZM207.731 16.954C207.731 17.2433 207.713 17.5047 207.675 17.738H201.781C201.828 18.354 202.057 18.8487 202.467 19.222C202.878 19.5953 203.382 19.782 203.979 19.782C204.838 19.782 205.445 19.4227 205.799 18.704H207.521C207.288 19.4133 206.863 19.9967 206.247 20.454C205.641 20.902 204.885 21.126 203.979 21.126C203.242 21.126 202.579 20.9627 201.991 20.636C201.413 20.3 200.955 19.8333 200.619 19.236C200.293 18.6293 200.129 17.9293 200.129 17.136C200.129 16.3427 200.288 15.6473 200.605 15.05C200.932 14.4433 201.385 13.9767 201.963 13.65C202.551 13.3233 203.223 13.16 203.979 13.16C204.707 13.16 205.356 13.3187 205.925 13.636C206.495 13.9533 206.938 14.4013 207.255 14.98C207.573 15.5493 207.731 16.2073 207.731 16.954ZM206.065 16.45C206.056 15.862 205.846 15.3907 205.435 15.036C205.025 14.6813 204.516 14.504 203.909 14.504C203.359 14.504 202.887 14.6813 202.495 15.036C202.103 15.3813 201.87 15.8527 201.795 16.45H206.065ZM208.77 17.108C208.77 16.3333 208.929 15.6473 209.246 15.05C209.573 14.4527 210.011 13.9907 210.562 13.664C211.122 13.328 211.743 13.16 212.424 13.16C212.928 13.16 213.423 13.272 213.908 13.496C214.403 13.7107 214.795 14 215.084 14.364V10.64H216.694V21H215.084V19.838C214.823 20.2113 214.459 20.5193 213.992 20.762C213.535 21.0047 213.007 21.126 212.41 21.126C211.738 21.126 211.122 20.958 210.562 20.622C210.011 20.2767 209.573 19.8007 209.246 19.194C208.929 18.578 208.77 17.8827 208.77 17.108ZM215.084 17.136C215.084 16.604 214.972 16.142 214.748 15.75C214.533 15.358 214.249 15.0593 213.894 14.854C213.539 14.6487 213.157 14.546 212.746 14.546C212.335 14.546 211.953 14.6487 211.598 14.854C211.243 15.05 210.954 15.344 210.73 15.736C210.515 16.1187 210.408 16.576 210.408 17.108C210.408 17.64 210.515 18.1067 210.73 18.508C210.954 18.9093 211.243 19.2173 211.598 19.432C211.962 19.6373 212.345 19.74 212.746 19.74C213.157 19.74 213.539 19.6373 213.894 19.432C214.249 19.2267 214.533 18.928 214.748 18.536C214.972 18.1347 215.084 17.668 215.084 17.136ZM229.413 13.286V21H227.817V20.09C227.565 20.4073 227.234 20.6593 226.823 20.846C226.422 21.0233 225.992 21.112 225.535 21.112C224.928 21.112 224.382 20.986 223.897 20.734C223.421 20.482 223.043 20.1087 222.763 19.614C222.492 19.1193 222.357 18.522 222.357 17.822V13.286H223.939V17.584C223.939 18.2747 224.112 18.8067 224.457 19.18C224.802 19.544 225.274 19.726 225.871 19.726C226.468 19.726 226.94 19.544 227.285 19.18C227.64 18.8067 227.817 18.2747 227.817 17.584V13.286H229.413ZM234.319 21.126C233.712 21.126 233.166 21.0187 232.681 20.804C232.205 20.58 231.827 20.2813 231.547 19.908C231.267 19.5253 231.117 19.1007 231.099 18.634H232.751C232.779 18.9607 232.933 19.236 233.213 19.46C233.502 19.6747 233.861 19.782 234.291 19.782C234.739 19.782 235.084 19.698 235.327 19.53C235.579 19.3527 235.705 19.1287 235.705 18.858C235.705 18.5687 235.565 18.354 235.285 18.214C235.014 18.074 234.58 17.92 233.983 17.752C233.404 17.5933 232.933 17.4393 232.569 17.29C232.205 17.1407 231.887 16.912 231.617 16.604C231.355 16.296 231.225 15.89 231.225 15.386C231.225 14.9753 231.346 14.602 231.589 14.266C231.831 13.9207 232.177 13.65 232.625 13.454C233.082 13.258 233.605 13.16 234.193 13.16C235.07 13.16 235.775 13.384 236.307 13.832C236.848 14.2707 237.137 14.8727 237.175 15.638H235.579C235.551 15.2927 235.411 15.0173 235.159 14.812C234.907 14.6067 234.566 14.504 234.137 14.504C233.717 14.504 233.395 14.5833 233.171 14.742C232.947 14.9007 232.835 15.1107 232.835 15.372C232.835 15.5773 232.909 15.75 233.059 15.89C233.208 16.03 233.39 16.142 233.605 16.226C233.819 16.3007 234.137 16.3987 234.557 16.52C235.117 16.6693 235.574 16.8233 235.929 16.982C236.293 17.1313 236.605 17.3553 236.867 17.654C237.128 17.9527 237.263 18.3493 237.273 18.844C237.273 19.2827 237.151 19.6747 236.909 20.02C236.666 20.3653 236.321 20.636 235.873 20.832C235.434 21.028 234.916 21.126 234.319 21.126ZM240.747 19.082L239.053 22.946H238.017L239.011 19.082H240.747ZM249.671 13.16C250.277 13.16 250.819 13.286 251.295 13.538C251.78 13.79 252.158 14.1633 252.429 14.658C252.699 15.1527 252.835 15.75 252.835 16.45V21H251.253V16.688C251.253 15.9973 251.08 15.47 250.735 15.106C250.389 14.7327 249.918 14.546 249.321 14.546C248.723 14.546 248.247 14.7327 247.893 15.106C247.547 15.47 247.375 15.9973 247.375 16.688V21H245.779V13.286H247.375V14.168C247.636 13.8507 247.967 13.6033 248.369 13.426C248.779 13.2487 249.213 13.16 249.671 13.16ZM258.216 21.126C257.488 21.126 256.83 20.9627 256.242 20.636C255.654 20.3 255.192 19.8333 254.856 19.236C254.52 18.6293 254.352 17.9293 254.352 17.136C254.352 16.352 254.525 15.6567 254.87 15.05C255.216 14.4433 255.687 13.9767 256.284 13.65C256.882 13.3233 257.549 13.16 258.286 13.16C259.024 13.16 259.691 13.3233 260.288 13.65C260.886 13.9767 261.357 14.4433 261.702 15.05C262.048 15.6567 262.22 16.352 262.22 17.136C262.22 17.92 262.043 18.6153 261.688 19.222C261.334 19.8287 260.848 20.3 260.232 20.636C259.626 20.9627 258.954 21.126 258.216 21.126ZM258.216 19.74C258.627 19.74 259.01 19.642 259.364 19.446C259.728 19.25 260.022 18.956 260.246 18.564C260.47 18.172 260.582 17.696 260.582 17.136C260.582 16.576 260.475 16.1047 260.26 15.722C260.046 15.33 259.761 15.036 259.406 14.84C259.052 14.644 258.669 14.546 258.258 14.546C257.848 14.546 257.465 14.644 257.11 14.84C256.765 15.036 256.49 15.33 256.284 15.722C256.079 16.1047 255.976 16.576 255.976 17.136C255.976 17.9667 256.186 18.6107 256.606 19.068C257.036 19.516 257.572 19.74 258.216 19.74ZM274.158 13.286L271.764 21H270.084L268.53 15.302L266.976 21H265.296L262.888 13.286H264.512L266.122 19.488L267.76 13.286H269.426L270.994 19.46L272.59 13.286H274.158ZM279.8 12.264C279.51 12.264 279.268 12.166 279.072 11.97C278.876 11.774 278.778 11.5313 278.778 11.242C278.778 10.9527 278.876 10.71 279.072 10.514C279.268 10.318 279.51 10.22 279.8 10.22C280.08 10.22 280.318 10.318 280.514 10.514C280.71 10.71 280.808 10.9527 280.808 11.242C280.808 11.5313 280.71 11.774 280.514 11.97C280.318 12.166 280.08 12.264 279.8 12.264ZM280.584 13.286V21H278.988V13.286H280.584ZM284.541 14.588V18.858C284.541 19.1473 284.606 19.3573 284.737 19.488C284.877 19.6093 285.11 19.67 285.437 19.67H286.417V21H285.157C284.438 21 283.888 20.832 283.505 20.496C283.122 20.16 282.931 19.614 282.931 18.858V14.588H282.021V13.286H282.931V11.368H284.541V13.286H286.417V14.588H284.541ZM288.14 11.27H289.876L288.406 14.602H287.286L288.14 11.27ZM294.079 21.126C293.472 21.126 292.926 21.0187 292.441 20.804C291.965 20.58 291.587 20.2813 291.307 19.908C291.027 19.5253 290.877 19.1007 290.859 18.634H292.511C292.539 18.9607 292.693 19.236 292.973 19.46C293.262 19.6747 293.621 19.782 294.051 19.782C294.499 19.782 294.844 19.698 295.087 19.53C295.339 19.3527 295.465 19.1287 295.465 18.858C295.465 18.5687 295.325 18.354 295.045 18.214C294.774 18.074 294.34 17.92 293.743 17.752C293.164 17.5933 292.693 17.4393 292.329 17.29C291.965 17.1407 291.647 16.912 291.377 16.604C291.115 16.296 290.985 15.89 290.985 15.386C290.985 14.9753 291.106 14.602 291.349 14.266C291.591 13.9207 291.937 13.65 292.385 13.454C292.842 13.258 293.365 13.16 293.953 13.16C294.83 13.16 295.535 13.384 296.067 13.832C296.608 14.2707 296.897 14.8727 296.935 15.638H295.339C295.311 15.2927 295.171 15.0173 294.919 14.812C294.667 14.6067 294.326 14.504 293.897 14.504C293.477 14.504 293.155 14.5833 292.931 14.742C292.707 14.9007 292.595 15.1107 292.595 15.372C292.595 15.5773 292.669 15.75 292.819 15.89C292.968 16.03 293.15 16.142 293.365 16.226C293.579 16.3007 293.897 16.3987 294.317 16.52C294.877 16.6693 295.334 16.8233 295.689 16.982C296.053 17.1313 296.365 17.3553 296.627 17.654C296.888 17.9527 297.023 18.3493 297.033 18.844C297.033 19.2827 296.911 19.6747 296.669 20.02C296.426 20.3653 296.081 20.636 295.633 20.832C295.194 21.028 294.676 21.126 294.079 21.126ZM309.338 13.286L304.606 24.626H302.954L304.522 20.874L301.484 13.286H303.262L305.432 19.166L307.686 13.286H309.338ZM313.888 21.126C313.16 21.126 312.502 20.9627 311.914 20.636C311.326 20.3 310.864 19.8333 310.528 19.236C310.192 18.6293 310.024 17.9293 310.024 17.136C310.024 16.352 310.197 15.6567 310.542 15.05C310.888 14.4433 311.359 13.9767 311.956 13.65C312.554 13.3233 313.221 13.16 313.958 13.16C314.696 13.16 315.363 13.3233 315.96 13.65C316.558 13.9767 317.029 14.4433 317.374 15.05C317.72 15.6567 317.892 16.352 317.892 17.136C317.892 17.92 317.715 18.6153 317.36 19.222C317.006 19.8287 316.52 20.3 315.904 20.636C315.298 20.9627 314.626 21.126 313.888 21.126ZM313.888 19.74C314.299 19.74 314.682 19.642 315.036 19.446C315.4 19.25 315.694 18.956 315.918 18.564C316.142 18.172 316.254 17.696 316.254 17.136C316.254 16.576 316.147 16.1047 315.932 15.722C315.718 15.33 315.433 15.036 315.078 14.84C314.724 14.644 314.341 14.546 313.93 14.546C313.52 14.546 313.137 14.644 312.782 14.84C312.437 15.036 312.162 15.33 311.956 15.722C311.751 16.1047 311.648 16.576 311.648 17.136C311.648 17.9667 311.858 18.6107 312.278 19.068C312.708 19.516 313.244 19.74 313.888 19.74ZM326.456 13.286V21H324.86V20.09C324.608 20.4073 324.277 20.6593 323.866 20.846C323.465 21.0233 323.035 21.112 322.578 21.112C321.971 21.112 321.425 20.986 320.94 20.734C320.464 20.482 320.086 20.1087 319.806 19.614C319.535 19.1193 319.4 18.522 319.4 17.822V13.286H320.982V17.584C320.982 18.2747 321.155 18.8067 321.5 19.18C321.845 19.544 322.317 19.726 322.914 19.726C323.511 19.726 323.983 19.544 324.328 19.18C324.683 18.8067 324.86 18.2747 324.86 17.584V13.286H326.456ZM330.158 14.406C330.391 14.014 330.699 13.7107 331.082 13.496C331.474 13.272 331.936 13.16 332.468 13.16V14.812H332.062C331.436 14.812 330.96 14.9707 330.634 15.288C330.316 15.6053 330.158 16.156 330.158 16.94V21H328.562V13.286H330.158V14.406ZM339.433 14.588V18.858C339.433 19.1473 339.499 19.3573 339.629 19.488C339.769 19.6093 340.003 19.67 340.329 19.67H341.309V21H340.049C339.331 21 338.78 20.832 338.397 20.496C338.015 20.16 337.823 19.614 337.823 18.858V14.588H336.913V13.286H337.823V11.368H339.433V13.286H341.309V14.588H339.433ZM349.766 13.286V21H348.17V20.09C347.918 20.4073 347.587 20.6593 347.176 20.846C346.775 21.0233 346.346 21.112 345.888 21.112C345.282 21.112 344.736 20.986 344.25 20.734C343.774 20.482 343.396 20.1087 343.116 19.614C342.846 19.1193 342.71 18.522 342.71 17.822V13.286H344.292V17.584C344.292 18.2747 344.465 18.8067 344.81 19.18C345.156 19.544 345.627 19.726 346.224 19.726C346.822 19.726 347.293 19.544 347.638 19.18C347.993 18.8067 348.17 18.2747 348.17 17.584V13.286H349.766ZM353.468 14.406C353.702 14.014 354.01 13.7107 354.392 13.496C354.784 13.272 355.246 13.16 355.778 13.16V14.812H355.372C354.747 14.812 354.271 14.9707 353.944 15.288C353.627 15.6053 353.468 16.156 353.468 16.94V21H351.872V13.286H353.468V14.406ZM361.137 13.16C361.744 13.16 362.285 13.286 362.761 13.538C363.247 13.79 363.625 14.1633 363.895 14.658C364.166 15.1527 364.301 15.75 364.301 16.45V21H362.719V16.688C362.719 15.9973 362.547 15.47 362.201 15.106C361.856 14.7327 361.385 14.546 360.787 14.546C360.19 14.546 359.714 14.7327 359.359 15.106C359.014 15.47 358.841 15.9973 358.841 16.688V21H357.245V13.286H358.841V14.168C359.103 13.8507 359.434 13.6033 359.835 13.426C360.246 13.2487 360.68 13.16 361.137 13.16Z" fill="#202020"/>
</g>
<defs>
<clipPath id="clip0_818_1482">
<rect width="366" height="32" fill="white"/>
</clipPath>
</defs>
</svg>
