<svg width="179" height="29" viewBox="0 0 179 29" fill="none" xmlns="http://www.w3.org/2000/svg">
<g clip-path="url(#clip0_818_1487)">
<rect y="1" width="26.651" height="26.651" rx="2.99824" fill="#00A85A"/>
<rect y="1" width="26.651" height="26.651" fill="#00A85A"/>
<path d="M13.3255 18.5721C17.7735 18.5721 21.3793 14.9663 21.3793 10.5182C21.3793 6.0702 17.7735 2.46436 13.3255 2.46436C8.87745 2.46436 5.27161 6.0702 5.27161 10.5182C5.27161 14.9663 8.87745 18.5721 13.3255 18.5721Z" fill="#00A85A"/>
<path fill-rule="evenodd" clip-rule="evenodd" d="M13.5198 11.5139C15.4356 11.5139 16.9897 11.8575 16.9897 12.2804V12.6459C16.9897 13.0688 15.4362 13.4124 13.5198 13.4124C11.6034 13.4124 10.0493 13.0688 10.0493 12.6459V12.2804C10.0493 11.8569 11.6034 11.5139 13.5198 11.5139Z" fill="url(#paint0_linear_818_1487)"/>
<path d="M13.5195 13.047C15.436 13.047 16.9897 12.7039 16.9897 12.2806C16.9897 11.8573 15.436 11.5142 13.5195 11.5142C11.603 11.5142 10.0493 11.8573 10.0493 12.2806C10.0493 12.7039 11.603 13.047 13.5195 13.047Z" fill="#EEDA32"/>
<path d="M13.5258 12.9642C15.3843 12.9642 16.8909 12.6582 16.8909 12.2808C16.8909 11.9033 15.3843 11.5973 13.5258 11.5973C11.6674 11.5973 10.1608 11.9033 10.1608 12.2808C10.1608 12.6582 11.6674 12.9642 13.5258 12.9642Z" fill="url(#paint1_radial_818_1487)"/>
<path fill-rule="evenodd" clip-rule="evenodd" d="M13.5197 10.9559C15.4355 10.9559 16.9895 11.2996 16.9895 11.7224V12.0885C16.9895 12.5114 15.4361 12.8538 13.5197 12.8538C11.6033 12.8538 10.0492 12.5114 10.0492 12.0885V11.7224C10.0492 11.2989 11.6033 10.9559 13.5197 10.9559Z" fill="url(#paint2_linear_818_1487)"/>
<path d="M13.5194 12.4888C15.4359 12.4888 16.9896 12.1457 16.9896 11.7224C16.9896 11.2991 15.4359 10.9559 13.5194 10.9559C11.6028 10.9559 10.0492 11.2991 10.0492 11.7224C10.0492 12.1457 11.6028 12.4888 13.5194 12.4888Z" fill="#EEDA32"/>
<path d="M13.5256 12.4062C15.3841 12.4062 16.8907 12.1002 16.8907 11.7228C16.8907 11.3453 15.3841 11.0393 13.5256 11.0393C11.6671 11.0393 10.1605 11.3453 10.1605 11.7228C10.1605 12.1002 11.6671 12.4062 13.5256 12.4062Z" fill="url(#paint3_radial_818_1487)"/>
<path fill-rule="evenodd" clip-rule="evenodd" d="M13.0635 10.1234C14.9799 10.1234 16.534 10.4664 16.534 10.8899V11.2542C16.534 11.6777 14.9799 12.0207 13.0635 12.0207C11.1471 12.0207 9.59363 11.6777 9.59363 11.2542V10.8899C9.59301 10.4676 11.1477 10.1234 13.0635 10.1234Z" fill="url(#paint4_linear_818_1487)"/>
<path d="M13.0634 11.6563C14.98 11.6563 16.5336 11.3132 16.5336 10.8899C16.5336 10.4666 14.98 10.1234 13.0634 10.1234C11.1469 10.1234 9.59326 10.4666 9.59326 10.8899C9.59326 11.3132 11.1469 11.6563 13.0634 11.6563Z" fill="#EEDA32"/>
<path d="M13.0697 11.5737C14.9282 11.5737 16.4348 11.2677 16.4348 10.8902C16.4348 10.5128 14.9282 10.2068 13.0697 10.2068C11.2112 10.2068 9.70459 10.5128 9.70459 10.8902C9.70459 11.2677 11.2112 11.5737 13.0697 11.5737Z" fill="url(#paint5_radial_818_1487)"/>
<path fill-rule="evenodd" clip-rule="evenodd" d="M13.5197 9.28979C15.4355 9.28979 16.9895 9.63341 16.9895 10.0563V10.4212C16.9895 10.8441 15.4361 11.1877 13.5197 11.1877C11.6033 11.1877 10.0492 10.8441 10.0492 10.4212V10.0563C10.0492 9.63341 11.6033 9.28979 13.5197 9.28979Z" fill="url(#paint6_linear_818_1487)"/>
<path d="M13.5195 10.8226C15.436 10.8226 16.9897 10.4794 16.9897 10.0561C16.9897 9.63282 15.436 9.28967 13.5195 9.28967C11.603 9.28967 10.0493 9.63282 10.0493 10.0561C10.0493 10.4794 11.603 10.8226 13.5195 10.8226Z" fill="#EEDA32"/>
<path d="M13.5256 10.74C15.3841 10.74 16.8907 10.434 16.8907 10.0565C16.8907 9.67905 15.3841 9.37305 13.5256 9.37305C11.6671 9.37305 10.1605 9.67905 10.1605 10.0565C10.1605 10.434 11.6671 10.74 13.5256 10.74Z" fill="url(#paint7_radial_818_1487)"/>
<path fill-rule="evenodd" clip-rule="evenodd" d="M13.5197 8.45715C15.4355 8.45715 16.9895 8.80079 16.9895 9.22304V9.58798C16.9895 10.0115 15.4361 10.3551 13.5197 10.3551C11.6033 10.3551 10.0492 10.0115 10.0492 9.58798V9.22544C10.0492 8.80073 11.6033 8.45715 13.5197 8.45715Z" fill="url(#paint8_linear_818_1487)"/>
<path d="M13.5195 9.99005C15.436 9.99005 16.9897 9.6469 16.9897 9.2236C16.9897 8.8003 15.436 8.45715 13.5195 8.45715C11.603 8.45715 10.0493 8.8003 10.0493 9.2236C10.0493 9.6469 11.603 9.99005 13.5195 9.99005Z" fill="#EEDA32"/>
<path d="M13.5256 9.90708C15.3841 9.90708 16.8907 9.60108 16.8907 9.22362C16.8907 8.84616 15.3841 8.54016 13.5256 8.54016C11.6671 8.54016 10.1605 8.84616 10.1605 9.22362C10.1605 9.60108 11.6671 9.90708 13.5256 9.90708Z" fill="url(#paint9_radial_818_1487)"/>
<path fill-rule="evenodd" clip-rule="evenodd" d="M13.0635 7.62402C14.9799 7.62402 16.534 7.96765 16.534 8.39051V8.75545C16.534 9.17831 14.9799 9.52193 13.0635 9.52193C11.1471 9.52193 9.59363 9.17831 9.59363 8.75545V8.39051C9.59301 7.96765 11.1477 7.62402 13.0635 7.62402Z" fill="url(#paint10_linear_818_1487)"/>
<path d="M13.0634 9.15678C14.98 9.15678 16.5336 8.81363 16.5336 8.39034C16.5336 7.96705 14.98 7.6239 13.0634 7.6239C11.1469 7.6239 9.59326 7.96705 9.59326 8.39034C9.59326 8.81363 11.1469 9.15678 13.0634 9.15678Z" fill="#EEDA32"/>
<path d="M13.0697 9.07419C14.9282 9.07419 16.4348 8.7682 16.4348 8.39073C16.4348 8.01327 14.9282 7.70728 13.0697 7.70728C11.2112 7.70728 9.70459 8.01327 9.70459 8.39073C9.70459 8.7682 11.2112 9.07419 13.0697 9.07419Z" fill="url(#paint11_radial_818_1487)"/>
<path d="M9.89747 4.55345C11.3678 3.70469 13.0995 3.42916 14.7607 3.77912C16.4219 4.12908 17.8953 5.07986 18.8983 6.44964L17.7008 7.14233C16.8851 6.08541 15.7139 5.36016 14.4042 5.10148C13.0944 4.8428 11.735 5.06847 10.5788 5.73594C9.42251 6.40341 8.54753 7.46761 8.11652 8.7312C7.68551 9.99479 7.72803 11.3721 8.23537 12.607L7.03607 13.2985C6.35078 11.7448 6.2634 9.99228 6.79116 8.37825C7.31893 6.76422 8.42424 5.40214 9.89507 4.55345H9.89747ZM19.6426 7.73898C20.3298 9.29312 20.4183 11.0462 19.8911 12.6616C19.3639 14.2771 18.2582 15.6405 16.7866 16.4901C15.3149 17.3397 13.5811 17.6157 11.9185 17.2644C10.2559 16.9131 8.78199 15.9596 7.77978 14.5873L8.97788 13.8958C9.79448 14.9506 10.9655 15.6738 12.2745 15.9312C13.5834 16.1887 14.941 15.9631 16.0963 15.2962C17.2516 14.6292 18.1264 13.5662 18.5579 12.3039C18.9894 11.0416 18.9485 9.66571 18.4433 8.43107L19.6426 7.73898Z" fill="#FEFEFE"/>
<rect y="20.0364" width="26.651" height="7.61457" fill="#FAD129"/>
<path d="M5.23429 25.434C5.02452 25.434 4.83631 25.3823 4.66964 25.2788C4.50298 25.1725 4.3708 25.0303 4.2731 24.8521C4.17827 24.6711 4.13086 24.4671 4.13086 24.2401C4.13086 24.013 4.18258 23.809 4.28603 23.628C4.39235 23.447 4.53459 23.3047 4.71275 23.2013C4.89378 23.095 5.09636 23.0418 5.3205 23.0418C5.54463 23.0418 5.74578 23.095 5.92394 23.2013C6.1021 23.3047 6.2429 23.447 6.34634 23.628C6.45266 23.809 6.50582 24.013 6.50582 24.2401V25.2012C6.50582 25.2645 6.48427 25.3176 6.44117 25.3607C6.40094 25.401 6.34922 25.4211 6.286 25.4211C6.22278 25.4211 6.16962 25.401 6.12652 25.3607C6.08629 25.3176 6.06618 25.2645 6.06618 25.2012V25.0418C5.9656 25.1625 5.84348 25.2587 5.6998 25.3306C5.559 25.3995 5.40383 25.434 5.23429 25.434ZM5.3205 25.0461C5.46705 25.0461 5.59779 25.0116 5.71273 24.9426C5.82767 24.8708 5.91819 24.7745 5.98428 24.6538C6.05037 24.5303 6.08342 24.3923 6.08342 24.2401C6.08342 24.0849 6.05037 23.947 5.98428 23.8263C5.91819 23.7027 5.82767 23.6064 5.71273 23.5375C5.59779 23.4656 5.46705 23.4297 5.3205 23.4297C5.17682 23.4297 5.04608 23.4656 4.92826 23.5375C4.81332 23.6064 4.72137 23.7027 4.6524 23.8263C4.58631 23.947 4.55327 24.0849 4.55327 24.2401C4.55327 24.3923 4.58631 24.5303 4.6524 24.6538C4.72137 24.7745 4.81332 24.8708 4.92826 24.9426C5.04608 25.0116 5.17682 25.0461 5.3205 25.0461Z" fill="#222222"/>
<path d="M8.2291 25.434C8.00496 25.434 7.80238 25.3823 7.62135 25.2788C7.44319 25.1725 7.30095 25.0288 7.19463 24.8478C7.09118 24.6668 7.03946 24.4627 7.03946 24.2357C7.03946 24.0087 7.08687 23.8061 7.1817 23.628C7.2794 23.447 7.41158 23.3047 7.57824 23.2013C7.74491 23.095 7.93312 23.0418 8.14289 23.0418C8.31243 23.0418 8.46903 23.0777 8.61271 23.1495C8.75639 23.2185 8.87707 23.3133 8.97477 23.434V22.2703C8.97477 22.2042 8.99489 22.151 9.03512 22.1108C9.07822 22.0705 9.13138 22.0504 9.1946 22.0504C9.26069 22.0504 9.31385 22.0705 9.35408 22.1108C9.39431 22.151 9.41442 22.2042 9.41442 22.2703V24.2357C9.41442 24.4627 9.36126 24.6668 9.25494 24.8478C9.1515 25.0288 9.01069 25.1725 8.83253 25.2788C8.65438 25.3823 8.45323 25.434 8.2291 25.434ZM8.2291 25.0461C8.37565 25.0461 8.50639 25.0116 8.62133 24.9426C8.73627 24.8708 8.82679 24.7731 8.89288 24.6495C8.95897 24.526 8.99202 24.388 8.99202 24.2357C8.99202 24.0806 8.95897 23.9426 8.89288 23.822C8.82679 23.7013 8.73627 23.6064 8.62133 23.5375C8.50639 23.4656 8.37565 23.4297 8.2291 23.4297C8.08542 23.4297 7.95467 23.4656 7.83686 23.5375C7.72192 23.6064 7.62997 23.7013 7.561 23.822C7.49491 23.9426 7.46187 24.0806 7.46187 24.2357C7.46187 24.388 7.49491 24.526 7.561 24.6495C7.62997 24.7731 7.72192 24.8708 7.83686 24.9426C7.95467 25.0116 8.08542 25.0461 8.2291 25.0461Z" fill="#222222"/>
<path d="M10.458 25.4168C10.3948 25.4168 10.3417 25.3952 10.2986 25.3521C10.2555 25.309 10.2339 25.2558 10.2339 25.1926V22.2746C10.2339 22.2085 10.2555 22.1553 10.2986 22.1151C10.3417 22.072 10.3948 22.0504 10.458 22.0504C10.5443 22.0504 10.6103 22.0907 10.6563 22.1711L11.9365 24.7357L13.1821 22.1711C13.2281 22.0907 13.2942 22.0504 13.3804 22.0504C13.4436 22.0504 13.4968 22.072 13.5399 22.1151C13.583 22.1553 13.6046 22.2085 13.6046 22.2746V25.1926C13.6046 25.2558 13.5816 25.309 13.5356 25.3521C13.4925 25.3952 13.4408 25.4168 13.3804 25.4168C13.3172 25.4168 13.264 25.3952 13.2209 25.3521C13.1778 25.309 13.1563 25.2558 13.1563 25.1926V23.0504L12.1132 25.1754C12.0643 25.2501 11.9997 25.2874 11.9192 25.2874C11.8244 25.2874 11.7554 25.2429 11.7123 25.1538L10.6822 23.0892V25.1926C10.6822 25.2558 10.6606 25.309 10.6175 25.3521C10.5744 25.3952 10.5213 25.4168 10.458 25.4168Z" fill="#222222"/>
<path d="M16.0244 25.4599C15.7716 25.4599 15.5403 25.4182 15.3305 25.3349C15.1207 25.2487 14.9397 25.1294 14.7874 24.9771C14.638 24.8219 14.5216 24.6395 14.4383 24.4297C14.3549 24.2171 14.3133 23.9843 14.3133 23.7314C14.3133 23.4786 14.3549 23.2472 14.4383 23.0375C14.5216 22.8277 14.638 22.6467 14.7874 22.4944C14.9397 22.3392 15.1207 22.22 15.3305 22.1366C15.5403 22.0504 15.7716 22.0073 16.0244 22.0073C16.2773 22.0073 16.5072 22.0504 16.7141 22.1366C16.9239 22.22 17.1049 22.3392 17.2572 22.4944C17.4095 22.6467 17.5273 22.8277 17.6106 23.0375C17.694 23.2472 17.7356 23.4786 17.7356 23.7314C17.7356 23.9843 17.694 24.2171 17.6106 24.4297C17.5273 24.6395 17.4095 24.8219 17.2572 24.9771C17.1049 25.1294 16.9239 25.2487 16.7141 25.3349C16.5072 25.4182 16.2773 25.4599 16.0244 25.4599ZM16.0244 25.0547C16.2744 25.0547 16.4957 24.9972 16.6882 24.8823C16.8808 24.7645 17.0316 24.6064 17.1408 24.4082C17.25 24.207 17.3046 23.9814 17.3046 23.7314C17.3046 23.4814 17.25 23.2573 17.1408 23.059C17.0316 22.8579 16.8808 22.6998 16.6882 22.5849C16.4957 22.47 16.2744 22.4125 16.0244 22.4125C15.7744 22.4125 15.5532 22.47 15.3607 22.5849C15.1681 22.6998 15.0173 22.8579 14.9081 23.059C14.7989 23.2573 14.7443 23.4814 14.7443 23.7314C14.7443 23.9814 14.7989 24.207 14.9081 24.4082C15.0173 24.6064 15.1681 24.7645 15.3607 24.8823C15.5532 24.9972 15.7744 25.0547 16.0244 25.0547Z" fill="#222222"/>
<path d="M18.6576 25.4168C18.5944 25.4168 18.5412 25.3952 18.4981 25.3521C18.4579 25.309 18.4378 25.2558 18.4378 25.1926V22.2746C18.4378 22.2085 18.4579 22.1553 18.4981 22.1151C18.5412 22.072 18.5944 22.0504 18.6576 22.0504C18.7266 22.0504 18.784 22.0777 18.83 22.1323L20.7093 24.6323V22.2746C20.7093 22.2085 20.7308 22.1553 20.7739 22.1151C20.817 22.072 20.8702 22.0504 20.9334 22.0504C20.9995 22.0504 21.0527 22.072 21.0929 22.1151C21.1331 22.1553 21.1532 22.2085 21.1532 22.2746V25.1926C21.1532 25.2558 21.1331 25.309 21.0929 25.3521C21.0527 25.3952 20.9995 25.4168 20.9334 25.4168C20.9047 25.4168 20.8731 25.411 20.8386 25.3995C20.807 25.3851 20.7811 25.365 20.761 25.3392L18.8817 22.8392V25.1926C18.8817 25.2558 18.8602 25.309 18.8171 25.3521C18.7768 25.3952 18.7237 25.4168 18.6576 25.4168Z" fill="#222222"/>
<path d="M22.2398 25.4168C22.1765 25.4168 22.1234 25.3952 22.0803 25.3521C22.0372 25.309 22.0156 25.2558 22.0156 25.1926V22.2746C22.0156 22.2085 22.0372 22.1553 22.0803 22.1151C22.1234 22.072 22.1765 22.0504 22.2398 22.0504C22.3059 22.0504 22.359 22.072 22.3992 22.1151C22.4424 22.1553 22.4639 22.2085 22.4639 22.2746V25.1926C22.4639 25.2558 22.4424 25.309 22.3992 25.3521C22.359 25.3952 22.3059 25.4168 22.2398 25.4168Z" fill="#222222"/>
</g>
<mask id="path-25-outside-1_818_1487" maskUnits="userSpaceOnUse" x="35.312" y="0" width="144" height="29" fill="black">
<rect fill="white" x="35.312" width="144" height="29"/>
<path d="M44.84 27.4833C43.2188 27.4833 41.7641 27.0835 40.476 26.284C39.188 25.4623 38.1664 24.363 37.4113 22.9861C36.6784 21.587 36.312 20.0102 36.312 18.2558C36.312 16.5013 36.7118 14.9245 37.5113 13.5254C38.333 12.1263 39.4323 11.027 40.8092 10.2275C42.2083 9.4058 43.774 8.99495 45.5062 8.99495C47.2384 8.99495 48.793 9.4058 50.1699 10.2275C51.5468 11.027 52.635 12.1263 53.4345 13.5254C54.2562 14.9245 54.6671 16.5013 54.6671 18.2558V25.6844C54.6671 26.173 54.5005 26.5838 54.1674 26.917C53.8565 27.2279 53.4567 27.3833 52.9682 27.3833C52.4796 27.3833 52.0687 27.2279 51.7356 26.917C51.4247 26.5838 51.2692 26.173 51.2692 25.6844V24.4518C50.4919 25.3846 49.5481 26.1286 48.4377 26.6838C47.3495 27.2168 46.1502 27.4833 44.84 27.4833ZM45.5062 24.4852C46.6388 24.4852 47.6493 24.2187 48.5376 23.6857C49.4259 23.1305 50.1255 22.3865 50.6363 21.4537C51.1471 20.4988 51.4025 19.4328 51.4025 18.2558C51.4025 17.0565 51.1471 15.9905 50.6363 15.0578C50.1255 14.1028 49.4259 13.3589 48.5376 12.8259C47.6493 12.2707 46.6388 11.993 45.5062 11.993C44.3958 11.993 43.3853 12.2707 42.4748 12.8259C41.5865 13.3589 40.8758 14.1028 40.3428 15.0578C39.832 15.9905 39.5766 17.0565 39.5766 18.2558C39.5766 19.4328 39.832 20.4988 40.3428 21.4537C40.8758 22.3865 41.5865 23.1305 42.4748 23.6857C43.3853 24.2187 44.3958 24.4852 45.5062 24.4852Z"/>
<path d="M67.9855 27.4833C66.2532 27.4833 64.6876 27.0835 63.2884 26.284C61.9115 25.4623 60.8122 24.3519 59.9905 22.9528C59.191 21.5537 58.7913 19.9769 58.7913 18.2224C58.7913 16.468 59.1577 14.9023 59.8906 13.5254C60.6457 12.1263 61.6672 11.027 62.9553 10.2275C64.2434 9.4058 65.698 8.99495 67.3192 8.99495C68.6295 8.99495 69.8399 9.27255 70.9503 9.82775C72.0607 10.3607 72.9934 11.0936 73.7485 12.0264V3.03205C73.7485 2.52126 73.904 2.11041 74.2149 1.79949C74.548 1.48858 74.9588 1.33312 75.4474 1.33312C75.9582 1.33312 76.3691 1.48858 76.68 1.79949C76.9909 2.11041 77.1464 2.52126 77.1464 3.03205V18.2224C77.1464 19.9769 76.7355 21.5537 75.9138 22.9528C75.1143 24.3519 74.0261 25.4623 72.6492 26.284C71.2723 27.0835 69.7177 27.4833 67.9855 27.4833ZM67.9855 24.4852C69.1181 24.4852 70.1286 24.2187 71.0169 23.6857C71.9052 23.1305 72.6048 22.3754 73.1156 21.4204C73.6264 20.4655 73.8818 19.3995 73.8818 18.2224C73.8818 17.0232 73.6264 15.9572 73.1156 15.0245C72.6048 14.0917 71.9052 13.3589 71.0169 12.8259C70.1286 12.2707 69.1181 11.993 67.9855 11.993C66.8751 11.993 65.8646 12.2707 64.9541 12.8259C64.0657 13.3589 63.3551 14.0917 62.8221 15.0245C62.3113 15.9572 62.0559 17.0232 62.0559 18.2224C62.0559 19.3995 62.3113 20.4655 62.8221 21.4204C63.3551 22.3754 64.0657 23.1305 64.9541 23.6857C65.8646 24.2187 66.8751 24.4852 67.9855 24.4852Z"/>
<path d="M85.2121 27.35C84.7235 27.35 84.3127 27.1834 83.9795 26.8503C83.6464 26.5172 83.4798 26.1064 83.4798 25.6178V3.06536C83.4798 2.55457 83.6464 2.14372 83.9795 1.83281C84.3127 1.49968 84.7235 1.33312 85.2121 1.33312C85.8783 1.33312 86.3891 1.64404 86.7445 2.26587L96.6382 22.0867L106.265 2.26587C106.621 1.64404 107.132 1.33312 107.798 1.33312C108.286 1.33312 108.697 1.49968 109.03 1.83281C109.363 2.14372 109.53 2.55457 109.53 3.06536V25.6178C109.53 26.1064 109.352 26.5172 108.997 26.8503C108.664 27.1834 108.264 27.35 107.798 27.35C107.309 27.35 106.898 27.1834 106.565 26.8503C106.232 26.5172 106.066 26.1064 106.066 25.6178V9.06157L98.004 25.4845C97.6265 26.0619 97.1268 26.3506 96.5049 26.3506C95.7721 26.3506 95.2391 26.0064 94.906 25.318L86.9443 9.36138V25.6178C86.9443 26.1064 86.7778 26.5172 86.4446 26.8503C86.1115 27.1834 85.7007 27.35 85.2121 27.35Z"/>
<path d="M128.232 27.6831C126.278 27.6831 124.49 27.3611 122.869 26.7171C121.248 26.0508 119.849 25.1292 118.672 23.9522C117.517 22.7529 116.617 21.3427 115.973 19.7215C115.329 18.0781 115.007 16.2792 115.007 14.3249C115.007 12.3706 115.329 10.5828 115.973 8.96163C116.617 7.34044 117.517 5.94132 118.672 4.76429C119.849 3.56504 121.248 2.6434 122.869 1.99937C124.49 1.33312 126.278 1 128.232 1C130.187 1 131.963 1.33312 133.562 1.99937C135.183 2.6434 136.583 3.56504 137.76 4.76429C138.937 5.94132 139.847 7.34044 140.491 8.96163C141.135 10.5828 141.457 12.3706 141.457 14.3249C141.457 16.2792 141.135 18.0781 140.491 19.7215C139.847 21.3427 138.937 22.7529 137.76 23.9522C136.583 25.1292 135.183 26.0508 133.562 26.7171C131.963 27.3611 130.187 27.6831 128.232 27.6831ZM128.232 24.5518C130.164 24.5518 131.874 24.1076 133.362 23.2193C134.85 22.3088 136.016 21.0873 136.86 19.5549C137.704 18.0004 138.126 16.257 138.126 14.3249C138.126 12.3928 137.704 10.6606 136.86 9.12819C136.016 7.57362 134.85 6.35217 133.362 5.46384C131.874 4.57552 130.164 4.13135 128.232 4.13135C126.3 4.13135 124.59 4.57552 123.102 5.46384C121.614 6.35217 120.448 7.57362 119.604 9.12819C118.76 10.6606 118.339 12.3928 118.339 14.3249C118.339 16.257 118.76 18.0004 119.604 19.5549C120.448 21.0873 121.614 22.3088 123.102 23.2193C124.59 24.1076 126.3 24.5518 128.232 24.5518Z"/>
<path d="M148.583 27.35C148.094 27.35 147.683 27.1834 147.35 26.8503C147.039 26.5172 146.884 26.1064 146.884 25.6178V3.06536C146.884 2.55457 147.039 2.14372 147.35 1.83281C147.683 1.49968 148.094 1.33312 148.583 1.33312C149.116 1.33312 149.56 1.5441 149.915 1.96606L164.439 21.2872V3.06536C164.439 2.55457 164.606 2.14372 164.939 1.83281C165.272 1.49968 165.683 1.33312 166.172 1.33312C166.682 1.33312 167.093 1.49968 167.404 1.83281C167.715 2.14372 167.871 2.55457 167.871 3.06536V25.6178C167.871 26.1064 167.715 26.5172 167.404 26.8503C167.093 27.1834 166.682 27.35 166.172 27.35C165.949 27.35 165.705 27.3056 165.439 27.2168C165.194 27.1057 164.995 26.9503 164.839 26.7504L150.315 7.42927V25.6178C150.315 26.1064 150.148 26.5172 149.815 26.8503C149.504 27.1834 149.093 27.35 148.583 27.35Z"/>
<path d="M176.268 27.35C175.779 27.35 175.368 27.1834 175.035 26.8503C174.702 26.5172 174.536 26.1064 174.536 25.6178V3.06536C174.536 2.55457 174.702 2.14372 175.035 1.83281C175.368 1.49968 175.779 1.33312 176.268 1.33312C176.779 1.33312 177.189 1.49968 177.5 1.83281C177.833 2.14372 178 2.55457 178 3.06536V25.6178C178 26.1064 177.833 26.5172 177.5 26.8503C177.189 27.1834 176.779 27.35 176.268 27.35Z"/>
</mask>
<path d="M44.84 27.4833C43.2188 27.4833 41.7641 27.0835 40.476 26.284C39.188 25.4623 38.1664 24.363 37.4113 22.9861C36.6784 21.587 36.312 20.0102 36.312 18.2558C36.312 16.5013 36.7118 14.9245 37.5113 13.5254C38.333 12.1263 39.4323 11.027 40.8092 10.2275C42.2083 9.4058 43.774 8.99495 45.5062 8.99495C47.2384 8.99495 48.793 9.4058 50.1699 10.2275C51.5468 11.027 52.635 12.1263 53.4345 13.5254C54.2562 14.9245 54.6671 16.5013 54.6671 18.2558V25.6844C54.6671 26.173 54.5005 26.5838 54.1674 26.917C53.8565 27.2279 53.4567 27.3833 52.9682 27.3833C52.4796 27.3833 52.0687 27.2279 51.7356 26.917C51.4247 26.5838 51.2692 26.173 51.2692 25.6844V24.4518C50.4919 25.3846 49.5481 26.1286 48.4377 26.6838C47.3495 27.2168 46.1502 27.4833 44.84 27.4833ZM45.5062 24.4852C46.6388 24.4852 47.6493 24.2187 48.5376 23.6857C49.4259 23.1305 50.1255 22.3865 50.6363 21.4537C51.1471 20.4988 51.4025 19.4328 51.4025 18.2558C51.4025 17.0565 51.1471 15.9905 50.6363 15.0578C50.1255 14.1028 49.4259 13.3589 48.5376 12.8259C47.6493 12.2707 46.6388 11.993 45.5062 11.993C44.3958 11.993 43.3853 12.2707 42.4748 12.8259C41.5865 13.3589 40.8758 14.1028 40.3428 15.0578C39.832 15.9905 39.5766 17.0565 39.5766 18.2558C39.5766 19.4328 39.832 20.4988 40.3428 21.4537C40.8758 22.3865 41.5865 23.1305 42.4748 23.6857C43.3853 24.2187 44.3958 24.4852 45.5062 24.4852Z" fill="#222222"/>
<path d="M67.9855 27.4833C66.2532 27.4833 64.6876 27.0835 63.2884 26.284C61.9115 25.4623 60.8122 24.3519 59.9905 22.9528C59.191 21.5537 58.7913 19.9769 58.7913 18.2224C58.7913 16.468 59.1577 14.9023 59.8906 13.5254C60.6457 12.1263 61.6672 11.027 62.9553 10.2275C64.2434 9.4058 65.698 8.99495 67.3192 8.99495C68.6295 8.99495 69.8399 9.27255 70.9503 9.82775C72.0607 10.3607 72.9934 11.0936 73.7485 12.0264V3.03205C73.7485 2.52126 73.904 2.11041 74.2149 1.79949C74.548 1.48858 74.9588 1.33312 75.4474 1.33312C75.9582 1.33312 76.3691 1.48858 76.68 1.79949C76.9909 2.11041 77.1464 2.52126 77.1464 3.03205V18.2224C77.1464 19.9769 76.7355 21.5537 75.9138 22.9528C75.1143 24.3519 74.0261 25.4623 72.6492 26.284C71.2723 27.0835 69.7177 27.4833 67.9855 27.4833ZM67.9855 24.4852C69.1181 24.4852 70.1286 24.2187 71.0169 23.6857C71.9052 23.1305 72.6048 22.3754 73.1156 21.4204C73.6264 20.4655 73.8818 19.3995 73.8818 18.2224C73.8818 17.0232 73.6264 15.9572 73.1156 15.0245C72.6048 14.0917 71.9052 13.3589 71.0169 12.8259C70.1286 12.2707 69.1181 11.993 67.9855 11.993C66.8751 11.993 65.8646 12.2707 64.9541 12.8259C64.0657 13.3589 63.3551 14.0917 62.8221 15.0245C62.3113 15.9572 62.0559 17.0232 62.0559 18.2224C62.0559 19.3995 62.3113 20.4655 62.8221 21.4204C63.3551 22.3754 64.0657 23.1305 64.9541 23.6857C65.8646 24.2187 66.8751 24.4852 67.9855 24.4852Z" fill="#222222"/>
<path d="M85.2121 27.35C84.7235 27.35 84.3127 27.1834 83.9795 26.8503C83.6464 26.5172 83.4798 26.1064 83.4798 25.6178V3.06536C83.4798 2.55457 83.6464 2.14372 83.9795 1.83281C84.3127 1.49968 84.7235 1.33312 85.2121 1.33312C85.8783 1.33312 86.3891 1.64404 86.7445 2.26587L96.6382 22.0867L106.265 2.26587C106.621 1.64404 107.132 1.33312 107.798 1.33312C108.286 1.33312 108.697 1.49968 109.03 1.83281C109.363 2.14372 109.53 2.55457 109.53 3.06536V25.6178C109.53 26.1064 109.352 26.5172 108.997 26.8503C108.664 27.1834 108.264 27.35 107.798 27.35C107.309 27.35 106.898 27.1834 106.565 26.8503C106.232 26.5172 106.066 26.1064 106.066 25.6178V9.06157L98.004 25.4845C97.6265 26.0619 97.1268 26.3506 96.5049 26.3506C95.7721 26.3506 95.2391 26.0064 94.906 25.318L86.9443 9.36138V25.6178C86.9443 26.1064 86.7778 26.5172 86.4446 26.8503C86.1115 27.1834 85.7007 27.35 85.2121 27.35Z" fill="#222222"/>
<path d="M128.232 27.6831C126.278 27.6831 124.49 27.3611 122.869 26.7171C121.248 26.0508 119.849 25.1292 118.672 23.9522C117.517 22.7529 116.617 21.3427 115.973 19.7215C115.329 18.0781 115.007 16.2792 115.007 14.3249C115.007 12.3706 115.329 10.5828 115.973 8.96163C116.617 7.34044 117.517 5.94132 118.672 4.76429C119.849 3.56504 121.248 2.6434 122.869 1.99937C124.49 1.33312 126.278 1 128.232 1C130.187 1 131.963 1.33312 133.562 1.99937C135.183 2.6434 136.583 3.56504 137.76 4.76429C138.937 5.94132 139.847 7.34044 140.491 8.96163C141.135 10.5828 141.457 12.3706 141.457 14.3249C141.457 16.2792 141.135 18.0781 140.491 19.7215C139.847 21.3427 138.937 22.7529 137.76 23.9522C136.583 25.1292 135.183 26.0508 133.562 26.7171C131.963 27.3611 130.187 27.6831 128.232 27.6831ZM128.232 24.5518C130.164 24.5518 131.874 24.1076 133.362 23.2193C134.85 22.3088 136.016 21.0873 136.86 19.5549C137.704 18.0004 138.126 16.257 138.126 14.3249C138.126 12.3928 137.704 10.6606 136.86 9.12819C136.016 7.57362 134.85 6.35217 133.362 5.46384C131.874 4.57552 130.164 4.13135 128.232 4.13135C126.3 4.13135 124.59 4.57552 123.102 5.46384C121.614 6.35217 120.448 7.57362 119.604 9.12819C118.76 10.6606 118.339 12.3928 118.339 14.3249C118.339 16.257 118.76 18.0004 119.604 19.5549C120.448 21.0873 121.614 22.3088 123.102 23.2193C124.59 24.1076 126.3 24.5518 128.232 24.5518Z" fill="#222222"/>
<path d="M148.583 27.35C148.094 27.35 147.683 27.1834 147.35 26.8503C147.039 26.5172 146.884 26.1064 146.884 25.6178V3.06536C146.884 2.55457 147.039 2.14372 147.35 1.83281C147.683 1.49968 148.094 1.33312 148.583 1.33312C149.116 1.33312 149.56 1.5441 149.915 1.96606L164.439 21.2872V3.06536C164.439 2.55457 164.606 2.14372 164.939 1.83281C165.272 1.49968 165.683 1.33312 166.172 1.33312C166.682 1.33312 167.093 1.49968 167.404 1.83281C167.715 2.14372 167.871 2.55457 167.871 3.06536V25.6178C167.871 26.1064 167.715 26.5172 167.404 26.8503C167.093 27.1834 166.682 27.35 166.172 27.35C165.949 27.35 165.705 27.3056 165.439 27.2168C165.194 27.1057 164.995 26.9503 164.839 26.7504L150.315 7.42927V25.6178C150.315 26.1064 150.148 26.5172 149.815 26.8503C149.504 27.1834 149.093 27.35 148.583 27.35Z" fill="#222222"/>
<path d="M176.268 27.35C175.779 27.35 175.368 27.1834 175.035 26.8503C174.702 26.5172 174.536 26.1064 174.536 25.6178V3.06536C174.536 2.55457 174.702 2.14372 175.035 1.83281C175.368 1.49968 175.779 1.33312 176.268 1.33312C176.779 1.33312 177.189 1.49968 177.5 1.83281C177.833 2.14372 178 2.55457 178 3.06536V25.6178C178 26.1064 177.833 26.5172 177.5 26.8503C177.189 27.1834 176.779 27.35 176.268 27.35Z" fill="#222222"/>
<path d="M44.84 27.4833C43.2188 27.4833 41.7641 27.0835 40.476 26.284C39.188 25.4623 38.1664 24.363 37.4113 22.9861C36.6784 21.587 36.312 20.0102 36.312 18.2558C36.312 16.5013 36.7118 14.9245 37.5113 13.5254C38.333 12.1263 39.4323 11.027 40.8092 10.2275C42.2083 9.4058 43.774 8.99495 45.5062 8.99495C47.2384 8.99495 48.793 9.4058 50.1699 10.2275C51.5468 11.027 52.635 12.1263 53.4345 13.5254C54.2562 14.9245 54.6671 16.5013 54.6671 18.2558V25.6844C54.6671 26.173 54.5005 26.5838 54.1674 26.917C53.8565 27.2279 53.4567 27.3833 52.9682 27.3833C52.4796 27.3833 52.0687 27.2279 51.7356 26.917C51.4247 26.5838 51.2692 26.173 51.2692 25.6844V24.4518C50.4919 25.3846 49.5481 26.1286 48.4377 26.6838C47.3495 27.2168 46.1502 27.4833 44.84 27.4833ZM45.5062 24.4852C46.6388 24.4852 47.6493 24.2187 48.5376 23.6857C49.4259 23.1305 50.1255 22.3865 50.6363 21.4537C51.1471 20.4988 51.4025 19.4328 51.4025 18.2558C51.4025 17.0565 51.1471 15.9905 50.6363 15.0578C50.1255 14.1028 49.4259 13.3589 48.5376 12.8259C47.6493 12.2707 46.6388 11.993 45.5062 11.993C44.3958 11.993 43.3853 12.2707 42.4748 12.8259C41.5865 13.3589 40.8758 14.1028 40.3428 15.0578C39.832 15.9905 39.5766 17.0565 39.5766 18.2558C39.5766 19.4328 39.832 20.4988 40.3428 21.4537C40.8758 22.3865 41.5865 23.1305 42.4748 23.6857C43.3853 24.2187 44.3958 24.4852 45.5062 24.4852Z" stroke="#222222" stroke-width="1.33255" mask="url(#path-25-outside-1_818_1487)"/>
<path d="M67.9855 27.4833C66.2532 27.4833 64.6876 27.0835 63.2884 26.284C61.9115 25.4623 60.8122 24.3519 59.9905 22.9528C59.191 21.5537 58.7913 19.9769 58.7913 18.2224C58.7913 16.468 59.1577 14.9023 59.8906 13.5254C60.6457 12.1263 61.6672 11.027 62.9553 10.2275C64.2434 9.4058 65.698 8.99495 67.3192 8.99495C68.6295 8.99495 69.8399 9.27255 70.9503 9.82775C72.0607 10.3607 72.9934 11.0936 73.7485 12.0264V3.03205C73.7485 2.52126 73.904 2.11041 74.2149 1.79949C74.548 1.48858 74.9588 1.33312 75.4474 1.33312C75.9582 1.33312 76.3691 1.48858 76.68 1.79949C76.9909 2.11041 77.1464 2.52126 77.1464 3.03205V18.2224C77.1464 19.9769 76.7355 21.5537 75.9138 22.9528C75.1143 24.3519 74.0261 25.4623 72.6492 26.284C71.2723 27.0835 69.7177 27.4833 67.9855 27.4833ZM67.9855 24.4852C69.1181 24.4852 70.1286 24.2187 71.0169 23.6857C71.9052 23.1305 72.6048 22.3754 73.1156 21.4204C73.6264 20.4655 73.8818 19.3995 73.8818 18.2224C73.8818 17.0232 73.6264 15.9572 73.1156 15.0245C72.6048 14.0917 71.9052 13.3589 71.0169 12.8259C70.1286 12.2707 69.1181 11.993 67.9855 11.993C66.8751 11.993 65.8646 12.2707 64.9541 12.8259C64.0657 13.3589 63.3551 14.0917 62.8221 15.0245C62.3113 15.9572 62.0559 17.0232 62.0559 18.2224C62.0559 19.3995 62.3113 20.4655 62.8221 21.4204C63.3551 22.3754 64.0657 23.1305 64.9541 23.6857C65.8646 24.2187 66.8751 24.4852 67.9855 24.4852Z" stroke="#222222" stroke-width="1.33255" mask="url(#path-25-outside-1_818_1487)"/>
<path d="M85.2121 27.35C84.7235 27.35 84.3127 27.1834 83.9795 26.8503C83.6464 26.5172 83.4798 26.1064 83.4798 25.6178V3.06536C83.4798 2.55457 83.6464 2.14372 83.9795 1.83281C84.3127 1.49968 84.7235 1.33312 85.2121 1.33312C85.8783 1.33312 86.3891 1.64404 86.7445 2.26587L96.6382 22.0867L106.265 2.26587C106.621 1.64404 107.132 1.33312 107.798 1.33312C108.286 1.33312 108.697 1.49968 109.03 1.83281C109.363 2.14372 109.53 2.55457 109.53 3.06536V25.6178C109.53 26.1064 109.352 26.5172 108.997 26.8503C108.664 27.1834 108.264 27.35 107.798 27.35C107.309 27.35 106.898 27.1834 106.565 26.8503C106.232 26.5172 106.066 26.1064 106.066 25.6178V9.06157L98.004 25.4845C97.6265 26.0619 97.1268 26.3506 96.5049 26.3506C95.7721 26.3506 95.2391 26.0064 94.906 25.318L86.9443 9.36138V25.6178C86.9443 26.1064 86.7778 26.5172 86.4446 26.8503C86.1115 27.1834 85.7007 27.35 85.2121 27.35Z" stroke="#222222" stroke-width="1.33255" mask="url(#path-25-outside-1_818_1487)"/>
<path d="M128.232 27.6831C126.278 27.6831 124.49 27.3611 122.869 26.7171C121.248 26.0508 119.849 25.1292 118.672 23.9522C117.517 22.7529 116.617 21.3427 115.973 19.7215C115.329 18.0781 115.007 16.2792 115.007 14.3249C115.007 12.3706 115.329 10.5828 115.973 8.96163C116.617 7.34044 117.517 5.94132 118.672 4.76429C119.849 3.56504 121.248 2.6434 122.869 1.99937C124.49 1.33312 126.278 1 128.232 1C130.187 1 131.963 1.33312 133.562 1.99937C135.183 2.6434 136.583 3.56504 137.76 4.76429C138.937 5.94132 139.847 7.34044 140.491 8.96163C141.135 10.5828 141.457 12.3706 141.457 14.3249C141.457 16.2792 141.135 18.0781 140.491 19.7215C139.847 21.3427 138.937 22.7529 137.76 23.9522C136.583 25.1292 135.183 26.0508 133.562 26.7171C131.963 27.3611 130.187 27.6831 128.232 27.6831ZM128.232 24.5518C130.164 24.5518 131.874 24.1076 133.362 23.2193C134.85 22.3088 136.016 21.0873 136.86 19.5549C137.704 18.0004 138.126 16.257 138.126 14.3249C138.126 12.3928 137.704 10.6606 136.86 9.12819C136.016 7.57362 134.85 6.35217 133.362 5.46384C131.874 4.57552 130.164 4.13135 128.232 4.13135C126.3 4.13135 124.59 4.57552 123.102 5.46384C121.614 6.35217 120.448 7.57362 119.604 9.12819C118.76 10.6606 118.339 12.3928 118.339 14.3249C118.339 16.257 118.76 18.0004 119.604 19.5549C120.448 21.0873 121.614 22.3088 123.102 23.2193C124.59 24.1076 126.3 24.5518 128.232 24.5518Z" stroke="#222222" stroke-width="1.33255" mask="url(#path-25-outside-1_818_1487)"/>
<path d="M148.583 27.35C148.094 27.35 147.683 27.1834 147.35 26.8503C147.039 26.5172 146.884 26.1064 146.884 25.6178V3.06536C146.884 2.55457 147.039 2.14372 147.35 1.83281C147.683 1.49968 148.094 1.33312 148.583 1.33312C149.116 1.33312 149.56 1.5441 149.915 1.96606L164.439 21.2872V3.06536C164.439 2.55457 164.606 2.14372 164.939 1.83281C165.272 1.49968 165.683 1.33312 166.172 1.33312C166.682 1.33312 167.093 1.49968 167.404 1.83281C167.715 2.14372 167.871 2.55457 167.871 3.06536V25.6178C167.871 26.1064 167.715 26.5172 167.404 26.8503C167.093 27.1834 166.682 27.35 166.172 27.35C165.949 27.35 165.705 27.3056 165.439 27.2168C165.194 27.1057 164.995 26.9503 164.839 26.7504L150.315 7.42927V25.6178C150.315 26.1064 150.148 26.5172 149.815 26.8503C149.504 27.1834 149.093 27.35 148.583 27.35Z" stroke="#222222" stroke-width="1.33255" mask="url(#path-25-outside-1_818_1487)"/>
<path d="M176.268 27.35C175.779 27.35 175.368 27.1834 175.035 26.8503C174.702 26.5172 174.536 26.1064 174.536 25.6178V3.06536C174.536 2.55457 174.702 2.14372 175.035 1.83281C175.368 1.49968 175.779 1.33312 176.268 1.33312C176.779 1.33312 177.189 1.49968 177.5 1.83281C177.833 2.14372 178 2.55457 178 3.06536V25.6178C178 26.1064 177.833 26.5172 177.5 26.8503C177.189 27.1834 176.779 27.35 176.268 27.35Z" stroke="#222222" stroke-width="1.33255" mask="url(#path-25-outside-1_818_1487)"/>
<defs>
<linearGradient id="paint0_linear_818_1487" x1="10.0493" y1="12.4632" x2="16.9897" y2="12.4632" gradientUnits="userSpaceOnUse">
<stop stop-color="#EEDA32"/>
<stop offset="0.459" stop-color="#C49C17"/>
<stop offset="1" stop-color="#FFCC00"/>
</linearGradient>
<radialGradient id="paint1_radial_818_1487" cx="0" cy="0" r="1" gradientUnits="userSpaceOnUse" gradientTransform="translate(10.9408 9.90822) rotate(-79.0263) scale(13.4879 0.841562)">
<stop stop-color="#FFCC00"/>
<stop offset="0.541" stop-color="#C49C17"/>
<stop offset="1" stop-color="#EEDA32"/>
</radialGradient>
<linearGradient id="paint2_linear_818_1487" x1="10.0492" y1="11.9049" x2="16.9895" y2="11.9049" gradientUnits="userSpaceOnUse">
<stop stop-color="#EEDA32"/>
<stop offset="0.459" stop-color="#C49C17"/>
<stop offset="1" stop-color="#FFCC00"/>
</linearGradient>
<radialGradient id="paint3_radial_818_1487" cx="0" cy="0" r="1" gradientUnits="userSpaceOnUse" gradientTransform="translate(13.5256 11.7214) scale(18.3396 3.72485)">
<stop stop-color="#FFCC00"/>
<stop offset="0.541" stop-color="#C49C17"/>
<stop offset="1" stop-color="#EEDA32"/>
</radialGradient>
<linearGradient id="paint4_linear_818_1487" x1="9.59363" y1="11.0721" x2="16.534" y2="11.0721" gradientUnits="userSpaceOnUse">
<stop stop-color="#EEDA32"/>
<stop offset="0.459" stop-color="#C49C17"/>
<stop offset="1" stop-color="#FFCC00"/>
</linearGradient>
<radialGradient id="paint5_radial_818_1487" cx="0" cy="0" r="1" gradientUnits="userSpaceOnUse" gradientTransform="translate(13.0629 10.8916) scale(18.3397 3.72485)">
<stop stop-color="#FFCC00"/>
<stop offset="0.541" stop-color="#C49C17"/>
<stop offset="1" stop-color="#EEDA32"/>
</radialGradient>
<linearGradient id="paint6_linear_818_1487" x1="10.0492" y1="10.2387" x2="16.9895" y2="10.2387" gradientUnits="userSpaceOnUse">
<stop stop-color="#EEDA32"/>
<stop offset="0.459" stop-color="#C49C17"/>
<stop offset="1" stop-color="#FFCC00"/>
</linearGradient>
<radialGradient id="paint7_radial_818_1487" cx="0" cy="0" r="1" gradientUnits="userSpaceOnUse" gradientTransform="translate(13.5256 10.0551) scale(18.3396 3.72489)">
<stop stop-color="#FFCC00"/>
<stop offset="0.541" stop-color="#C49C17"/>
<stop offset="1" stop-color="#EEDA32"/>
</radialGradient>
<linearGradient id="paint8_linear_818_1487" x1="10.0492" y1="9.40611" x2="16.9895" y2="9.40611" gradientUnits="userSpaceOnUse">
<stop stop-color="#EEDA32"/>
<stop offset="0.459" stop-color="#C49C17"/>
<stop offset="1" stop-color="#FFCC00"/>
</linearGradient>
<radialGradient id="paint9_radial_818_1487" cx="0" cy="0" r="1" gradientUnits="userSpaceOnUse" gradientTransform="translate(13.5256 9.21952) scale(18.3396 3.72485)">
<stop stop-color="#FFCC00"/>
<stop offset="0.541" stop-color="#C49C17"/>
<stop offset="1" stop-color="#EEDA32"/>
</radialGradient>
<linearGradient id="paint10_linear_818_1487" x1="9.59363" y1="8.57298" x2="16.534" y2="8.57298" gradientUnits="userSpaceOnUse">
<stop stop-color="#EEDA32"/>
<stop offset="0.459" stop-color="#C49C17"/>
<stop offset="1" stop-color="#FFCC00"/>
</linearGradient>
<radialGradient id="paint11_radial_818_1487" cx="0" cy="0" r="1" gradientUnits="userSpaceOnUse" gradientTransform="translate(13.0764 8.38937) scale(18.3397 3.72485)">
<stop stop-color="#FFCC00"/>
<stop offset="0.541" stop-color="#C49C17"/>
<stop offset="1" stop-color="#EEDA32"/>
</radialGradient>
<clipPath id="clip0_818_1487">
<rect y="1" width="26.651" height="26.651" rx="2.99824" fill="white"/>
</clipPath>
</defs>
</svg>
